<svg width="115" height="53" viewBox="0 0 115 53" fill="none" xmlns="http://www.w3.org/2000/svg">
<path fill-rule="evenodd" clip-rule="evenodd" d="M114.342 19.1103C114.26 19.656 113.912 20.1404 113.428 20.3791C113.244 20.4678 113.053 20.5156 112.855 20.5224C112.746 21.1977 112.384 21.6889 111.777 21.9754C111.081 22.3097 110.174 22.3438 109.294 22.3779C108.141 22.4188 106.552 22.5211 105.46 22.8827C104.396 24.3698 106.238 24.9565 107.152 23.6876C108.1 24.0765 109.417 24.9224 108.66 26.0548C108.591 26.1571 108.516 26.2662 108.448 26.4095C108.271 26.7574 108.291 27.1872 108.312 27.6306C108.332 28.0945 108.346 28.572 108.169 29.0359C108.032 29.3838 107.807 29.6293 107.5 29.7794C107.029 30.0045 106.47 29.95 105.924 29.8954C105.679 29.8681 105.447 29.8476 105.235 29.8544H104.955L104.874 29.5953C104.785 29.2951 104.764 29.0631 104.751 28.8858C104.737 28.763 104.73 28.6812 104.703 28.6129C104.676 28.5788 104.642 28.5379 104.614 28.4969C104.553 28.4424 104.458 28.3878 104.321 28.306H104.307C104.13 28.2036 104.007 28.149 103.919 28.1218C103.884 27.6101 103.796 27.1053 103.632 26.6074C103.509 26.2458 103.332 25.8911 103.114 25.5636C102.895 25.243 102.629 24.9497 102.343 24.6905C102.056 24.4312 101.756 24.1993 101.463 23.9674C101.169 23.7422 100.876 23.5171 100.61 23.2784C100.344 23.0396 100.092 22.794 99.8938 22.5143C99.7915 22.3779 99.7028 22.2278 99.6278 22.0846C99.5527 21.9277 99.4845 21.7639 99.4299 21.607C99.3139 21.2796 99.2457 20.9385 99.232 20.5974C99.2116 20.2495 99.2458 19.9016 99.3072 19.5537C99.4299 18.8511 99.7028 18.1689 99.9757 17.4799C100.255 16.7909 100.542 16.0951 100.747 15.3583C100.944 14.6284 101.04 13.8508 100.89 13.1072C100.903 13.8576 100.726 14.5807 100.46 15.2629C100.201 15.9519 99.8529 16.6067 99.5391 17.2821C99.2184 17.9574 98.9114 18.6669 98.7409 19.4309C98.6522 19.8129 98.6181 20.2154 98.6317 20.6111C98.6454 21.0135 98.7205 21.416 98.8501 21.7912C98.9183 21.9822 98.9933 22.1664 99.082 22.3438C99.1775 22.5348 99.2866 22.6985 99.4094 22.8622C99.655 23.1828 99.9347 23.4626 100.235 23.7081C100.835 24.1993 101.47 24.5949 102.036 25.0383C102.595 25.4817 103.059 26.0411 103.352 26.7028C103.571 27.1667 103.734 27.6988 103.85 28.2036C103.898 28.4083 103.946 28.6197 103.987 28.8312C104.157 29.5202 104.205 30.0318 103.359 30.8982C103.141 31.1165 102.848 31.3075 102.568 31.4917C102.425 31.5872 102.295 31.669 102.172 31.7577C101.933 31.9692 101.715 32.2011 101.565 32.5081C101.565 32.5354 101.565 32.5695 101.565 32.5968L101.599 33.3881L100.972 32.9106C100.44 32.5013 100.187 31.9214 99.9484 31.3689C99.771 30.9596 99.6141 30.5912 99.3617 30.3184C99.0752 31.0824 98.4476 31.9078 97.9905 32.3512C97.7859 32.549 97.5676 32.7742 97.3561 32.9925C97.015 33.3472 96.6603 33.7156 96.3261 33.9884L95.9304 34.3295L95.7462 33.8383C95.6507 33.5655 95.6507 33.1425 95.6643 32.6445C95.6643 32.5081 95.6643 32.3307 95.6643 32.167H95.6575H95.6643C95.7871 31.8055 95.869 31.4303 95.9167 31.0482C95.9917 30.3251 95.944 29.5816 95.7121 28.879C95.6575 28.7016 95.5756 28.5242 95.5006 28.3673C95.4187 28.2036 95.3369 28.0399 95.2414 27.883C95.064 27.5692 94.8594 27.2622 94.6479 26.9689C94.2181 26.3754 93.7406 25.8365 93.2495 25.3112C92.2672 24.247 91.1416 23.3329 90.0092 22.4529L88.3037 21.15C88.0172 20.9317 87.7443 20.7134 87.4646 20.4883L86.6256 19.8198C85.5136 18.9398 84.429 18.0256 83.6036 16.9069C83.1943 16.3543 82.8463 15.7472 82.6007 15.1059C82.3552 14.4647 82.1915 13.7826 82.1164 13.0936C82.0414 12.4046 82.0482 11.6951 82.1028 10.9925C82.1301 10.6446 82.1778 10.2899 82.2256 9.94195C82.2802 9.60087 82.362 9.25975 82.4643 8.92548C82.6758 8.25696 83.0032 7.62255 83.4603 7.09727C83.9173 6.56518 84.5177 6.15589 85.193 5.91713C84.8451 6.00582 84.5109 6.14223 84.1971 6.31959C83.8833 6.49696 83.5899 6.72209 83.3375 6.98132C82.8191 7.49977 82.4438 8.14784 82.1846 8.83001C82.055 9.1711 81.9527 9.52581 81.8777 9.88054C81.8026 10.2353 81.7481 10.59 81.7003 10.9516C81.6048 11.6747 81.5775 12.4046 81.6389 13.1345C81.6935 13.8644 81.8367 14.5943 82.0959 15.2901C82.3483 15.986 82.7031 16.6408 83.1329 17.2411C83.5626 17.8414 84.0674 18.3804 84.5927 18.8852C85.1248 19.3832 85.6774 19.847 86.2368 20.2905L87.0826 20.9521C87.3623 21.1773 87.6488 21.3956 87.9354 21.6139L89.6544 22.8964C90.2275 23.3261 90.7936 23.7559 91.3325 24.2061C91.8783 24.6632 92.4036 25.1271 92.9016 25.6319C93.4064 26.1367 93.8839 26.6483 94.3204 27.2008C94.5387 27.4737 94.7434 27.7602 94.9344 28.0536C95.1186 28.3537 95.296 28.6538 95.4256 28.9745C95.678 29.6157 95.7666 30.3252 95.7393 31.0278C95.7257 31.3825 95.678 31.7304 95.5961 32.0715C95.5961 32.092 95.562 32.1329 95.5552 32.1534C95.5552 32.1534 95.5074 32.2148 95.4869 32.2557C95.2277 32.6582 95.0845 33.1425 94.9208 33.661C94.7161 34.3363 94.4978 35.0321 94.0135 35.5847C93.7611 35.8712 93.4541 36.1372 93.154 36.3896C93.0312 36.492 92.9152 36.5875 92.8061 36.6898C92.6764 36.7717 92.5332 36.8399 92.4036 36.9081C92.4036 36.9286 92.4036 36.9831 92.3831 37.1196L92.4036 36.9081C92.4036 36.9081 92.3422 36.9627 92.3149 36.9763C92.2399 37.0172 92.158 37.0514 92.0829 37.0855C91.7418 37.2424 91.4007 37.3856 91.046 37.5016C90.8686 37.563 90.6913 37.6175 90.514 37.6585C90.4799 37.6653 90.4457 37.6721 90.4116 37.679C90.7254 37.3038 90.9642 36.8603 91.1006 36.3896C91.2848 35.7757 91.3121 35.1208 91.2439 34.5001C91.1756 33.8725 91.012 33.2585 90.78 32.6786C90.5481 32.092 90.2479 31.5394 89.8932 31.021C89.709 30.7617 89.518 30.5162 89.2997 30.2774C89.0882 30.0455 88.8631 29.834 88.638 29.6225C88.181 29.1996 87.6965 28.8176 87.2054 28.4492C86.2231 27.7124 85.1998 27.0507 84.2448 26.3276C83.2898 25.6045 82.3893 24.8132 81.6798 23.865C81.5025 23.6263 81.3388 23.3807 81.1887 23.1351C81.0386 22.8759 80.8954 22.6166 80.7657 22.3506C80.4997 21.8185 80.2814 21.2591 80.0972 20.6929C79.913 20.1199 79.7629 19.5401 79.6538 18.9534C79.5447 18.3599 79.4697 17.7664 79.4355 17.1661C79.3673 15.9655 79.4628 14.7444 79.7902 13.5779C79.3536 14.7171 79.1695 15.945 79.1695 17.1729C79.1695 17.7869 79.2104 18.4077 79.2991 19.0148C79.3877 19.6219 79.5106 20.229 79.6811 20.8225C79.8517 21.416 80.0563 22.0027 80.3155 22.5689C80.4451 22.8486 80.5815 23.1351 80.7384 23.4011C80.8953 23.674 81.0659 23.94 81.2501 24.1924C81.6116 24.7041 82.0278 25.168 82.4712 25.6045C82.9146 26.0411 83.3921 26.43 83.8832 26.8052C84.8587 27.5556 85.882 28.2241 86.8507 28.9404C87.2464 29.2337 87.5124 29.4111 88.2423 30.066C88.4606 30.2638 88.6721 30.4752 88.8836 30.6867C89.0814 30.8914 89.2655 31.1233 89.4361 31.3552C89.7772 31.8259 90.0705 32.3444 90.2956 32.8901C90.5208 33.429 90.6982 33.9953 90.78 34.5751C90.8619 35.1481 90.855 35.7416 90.7117 36.301C90.5753 36.8603 90.2888 37.3788 89.8795 37.7949L89.593 38.0815L89.9955 38.061C90.207 38.0473 90.398 37.9996 90.5822 37.945C90.7732 37.8904 90.9505 37.8222 91.1279 37.7472C91.4826 37.6039 91.8237 37.4402 92.1579 37.256C92.233 37.2151 92.3081 37.1742 92.3831 37.1264C92.424 37.2833 92.4581 37.447 92.499 37.6108C92.6764 38.3134 92.7651 39.0501 92.8469 39.7596C92.9152 40.3189 92.9834 40.9056 93.0925 41.4582C93.2426 42.1949 93.7611 42.9658 94.2659 43.7094C94.8867 44.6371 95.5347 45.5921 95.5825 46.6086C95.9235 46.6973 96.7354 46.7927 97.1583 46.8405C97.6631 46.8951 97.8472 46.9223 97.9496 46.9565C98.7545 47.202 98.8978 47.2839 99.0956 47.7819C99.1434 47.8979 99.1979 48.0479 99.3139 48.2594C99.3548 48.3413 99.4163 48.4368 99.4777 48.5391C99.6755 48.8597 99.8938 49.2213 99.9688 49.5828C100.078 50.1354 99.9825 50.5993 99.6891 50.954C99.2798 51.452 98.509 51.6907 97.3288 51.6907C96.8513 51.6907 96.4011 51.6566 96.0327 51.6225L95.8212 51.6089C95.5142 51.5816 95.1596 51.5747 94.7912 51.5679C94.034 51.5543 93.2494 51.5407 92.6082 51.3769C91.3189 51.0563 91.1347 50.3059 90.9369 49.5214C90.8823 49.2895 90.8209 49.0507 90.7322 48.7983C90.5276 48.2321 90.0159 47.9592 89.4224 47.6386C88.8631 47.3385 88.2832 47.0247 87.9149 46.4312C87.7443 46.1583 87.6421 45.8854 87.5397 45.633C87.3965 45.2647 87.26 44.9168 86.9258 44.5689C86.6734 44.3028 86.3869 44.0641 86.0935 43.8185C85.6569 43.4501 85.1998 43.0749 84.8383 42.5838C84.0879 41.5605 83.1397 40.2098 82.478 38.7704C82.4098 38.634 82.3552 38.4908 82.3006 38.3339C81.9459 37.9109 81.5434 37.5561 81.025 37.3174C80.9295 37.2765 80.8339 37.2355 80.7384 37.2014C80.7043 37.2014 80.6703 37.2083 80.6362 37.2151C80.4383 37.2424 80.2337 37.2628 80.029 37.2628C78.5897 37.2628 77.389 36.7717 76.3453 35.7757C76.1952 35.6325 76.0588 35.4687 75.9292 35.305C75.67 34.9844 75.4721 34.7661 75.2538 34.6842C75.2266 34.6774 75.1924 34.6638 75.1583 34.657C75.1379 34.657 75.1174 34.6501 75.0901 34.6501C75.1106 34.6501 75.1379 34.6501 75.1583 34.657C75.1924 34.6638 75.2266 34.6706 75.2538 34.6842C75.5062 34.541 75.7654 34.4182 76.0383 34.2954C76.3452 34.1521 76.6659 34.0157 76.9933 33.8724C77.3139 33.7224 77.6414 33.5587 77.9484 33.3472C78.5487 32.9379 79.0876 32.4058 79.4696 31.7782C79.8516 31.1506 80.0768 30.4548 80.1791 29.759C79.8312 30.3798 79.4901 30.9801 79.074 31.5053C78.6579 32.0306 78.1598 32.4672 77.6005 32.8424C77.0616 33.2107 76.4203 33.5041 75.8132 33.8793C75.513 34.0703 75.206 34.2749 74.9468 34.5273H74.9605C74.8991 34.5819 74.8241 34.6569 74.7217 34.7593H74.7354C74.7354 34.7593 74.6877 34.8139 74.6672 34.8412C74.2988 35.1549 73.8622 35.8098 73.6712 36.0895C73.6098 36.1782 73.562 36.2532 73.5143 36.3146C73.0231 37.0104 72.607 37.7813 72.2045 38.5317C71.7884 39.3025 71.3586 40.1007 70.8401 40.8374C70.615 41.1512 70.3831 41.465 70.1648 41.772C69.5918 42.5428 69.0051 43.3478 68.5481 44.2005C68.2002 44.8622 67.9819 45.4625 67.8864 46.0355C67.7772 46.6631 67.7636 46.9906 67.7704 47.1475C67.8795 47.1407 67.9956 47.127 68.0911 47.1475C68.4663 47.2293 68.7527 47.509 68.8891 47.6659C69.0256 47.8228 69.087 48.0002 69.1279 48.1298C69.1484 48.1844 69.162 48.2389 69.1825 48.273C69.2166 48.2799 69.2848 48.2935 69.3326 48.2935C69.394 48.2935 69.4554 48.3071 69.5236 48.3208C69.776 48.3754 70.0147 48.4709 70.2467 48.5596L70.349 48.6005C70.7856 48.771 71.3791 48.9962 71.6178 49.501C71.8634 50.0194 71.8975 50.4424 71.7202 50.8107C71.42 51.4383 70.5673 51.6362 69.892 51.7999C69.1075 51.9841 67.9137 52.2023 66.6789 52.2023C65.6488 52.2023 64.7689 52.0523 64.0799 51.7453C63.5273 51.4997 62.5723 50.9949 62.3403 50.2786C62.1357 49.6306 62.4222 49.1326 62.6609 48.7301C62.7496 48.5869 62.8247 48.4504 62.8793 48.314C62.9748 48.0821 62.9952 47.9661 63.002 47.9183C62.9679 47.8979 62.9134 47.8774 62.8724 47.8569C62.6883 47.7751 62.4358 47.6659 62.1834 47.3999C61.5422 46.7382 61.8492 45.5171 61.9106 45.2783C62.0743 44.6849 62.2994 44.18 62.5109 43.6889C62.8451 42.9317 63.1589 42.2085 63.1999 41.2808C63.2681 39.7118 63.6842 38.2588 64.0867 36.8535C64.3255 36.0281 64.5642 35.1822 64.7416 34.3159C64.8644 33.7019 64.7825 33.4836 64.7211 33.4086C64.6529 33.3267 64.4892 33.279 64.2368 33.279C64.0458 33.279 63.8138 33.3062 63.4728 33.354C62.9407 33.4358 62.3335 33.4768 61.5968 33.4768C61.0579 33.4768 60.5121 33.4563 60.0346 33.4358C59.8641 33.4358 59.6867 33.429 59.5093 33.4222C59.0591 33.4222 58.5884 33.4086 58.1246 33.3267C57.2241 33.1698 56.269 32.7742 55.3413 32.3853C54.8501 32.1807 54.3794 31.9897 53.936 31.8328C53.6222 31.7236 53.2948 31.5872 52.9537 31.4439C52.176 31.1165 51.3711 30.7754 50.6821 30.7754H50.6411C49.9999 30.789 49.6588 31.3143 49.2631 31.9283C49.1471 32.1056 49.0244 32.2898 48.9016 32.4672C48.5128 32.9924 48.2808 33.5041 48.1376 34.1999C48.0626 34.541 48.0011 34.8889 47.9329 35.2504C47.7078 36.4783 47.4758 37.7472 46.8755 38.8659C46.7118 39.1593 46.5345 39.4458 46.3571 39.7118C45.8114 40.5509 45.3475 41.274 45.5453 42.2836C45.7431 43.2659 46.6504 43.989 47.5236 44.6916C47.8511 44.9509 48.158 45.1965 48.4309 45.4557C49.5155 46.4721 50.3341 46.8132 51.678 46.8132C51.8076 46.8132 51.9509 46.8132 52.0873 46.7996C52.2374 46.7927 52.3738 46.7791 52.5034 46.7723C52.6876 46.7587 52.865 46.745 53.0424 46.745C53.4653 46.745 53.9701 46.82 54.4954 47.3862C54.8638 47.7819 55.4368 48.6823 55.3891 49.3918C55.2936 50.7493 53.6017 50.7971 52.367 50.8244C52.0327 50.8312 51.7121 50.838 51.487 50.8721C51.2209 50.9131 50.9618 50.954 50.6821 51.0017C49.8908 51.1381 49.0789 51.2746 48.2467 51.2746C47.8783 51.2746 47.544 51.2473 47.2166 51.1996C46.3366 51.0563 46.0706 50.7288 45.709 50.2786C45.6135 50.1626 45.5044 50.0262 45.3748 49.883C44.9586 49.4191 44.4743 49.1599 43.9149 48.8597C43.8126 48.8052 43.7103 48.7506 43.608 48.6892C42.346 47.9866 41.35 47.1202 40.2653 46.1379C40.0266 45.9264 39.7537 45.6945 39.4603 45.4489C38.6144 44.7394 37.6595 43.9344 37.1274 43.1158C36.5339 42.2017 36.7317 40.9807 36.909 39.9028C36.9704 39.514 37.0319 39.1456 37.0523 38.8318C37.1342 37.14 36.9227 35.8166 36.377 34.6774L36.336 34.5887C36.1859 34.2749 35.9404 33.7565 35.6539 33.6337C35.6061 33.6132 35.572 33.5996 35.5379 33.5996H35.456C35.3878 33.5996 35.3196 33.6746 35.1695 33.8724C35.0126 34.0839 34.808 34.3431 34.4737 34.5205C33.8598 34.8411 33.198 34.9366 32.5636 35.0253C31.8132 35.1345 31.1106 35.2368 30.5649 35.6939C30.2375 35.9736 29.9577 36.2805 29.6849 36.6011C29.2073 37.5834 28.2182 38.5112 27.4064 38.8932C27.0585 39.0637 26.6901 39.1456 26.3354 39.2207C26.3217 39.2207 26.315 39.2207 26.3082 39.2275C25.817 39.4185 25.3122 39.63 24.9165 39.9028C24.2343 40.3735 23.8318 41.0762 23.4225 41.8675C23.1224 42.4405 23.0269 42.9726 22.9109 43.5865C22.8563 43.873 22.8018 44.1664 22.7268 44.4802C22.6927 44.603 22.6585 44.7326 22.6313 44.8554C22.4402 45.5853 22.2561 46.2811 22.4675 46.9633C22.6722 46.9565 22.8905 46.8678 23.1292 46.7791C23.4567 46.6495 23.8319 46.5062 24.2548 46.5403C25.0871 46.6086 25.8511 47.1679 26.4037 47.5773C26.9972 48.0138 27.4269 48.9006 27.4405 49.7329C27.4541 50.3673 27.2291 50.9131 26.7993 51.2542C26.3627 51.6089 25.5441 51.6975 24.8892 51.7726C24.7459 51.793 24.6095 51.8067 24.5072 51.8203C23.8387 51.9227 23.1019 52.0113 22.3379 52.0045C22.256 52.0045 22.1742 52.0045 22.0855 52.0045C20.8303 51.9977 19.1044 51.9841 18.5723 50.5447C18.3404 49.9171 18.2176 49.3168 18.1016 48.7369C17.9106 47.7887 17.7333 46.9019 17.092 46.0492C16.2393 44.9236 16.4235 43.8458 16.6145 42.7134C16.6554 42.4883 16.6895 42.2563 16.7236 42.0244C16.8396 41.1853 16.8942 40.4827 16.7782 39.7801C16.7509 39.6163 16.6827 39.4117 16.6076 39.1866C16.4507 38.7022 16.2666 38.1565 16.3894 37.6994C16.6486 36.6966 17.59 36.3624 18.4154 36.0622C18.852 35.9053 19.2613 35.7552 19.5478 35.5369C19.2477 33.3199 20.2641 31.0415 21.0827 29.2064C21.3351 28.6402 21.5398 28.0331 21.7581 27.385C22.1128 26.3345 22.4743 25.243 23.0814 24.3289L23.2929 24.0083C23.9819 22.9714 24.6846 21.9072 25.3326 20.8225C25.4213 20.6725 25.5168 20.5224 25.6055 20.3723C25.9807 19.7652 26.3286 19.1853 26.5878 18.4895C26.9493 17.5072 27.3245 16.7295 27.7952 15.9996C26.8675 16.0542 25.087 16.0746 21.6352 16.1088C18.3335 16.1429 14.5885 16.1769 13.8313 16.2997C11.6415 16.6545 6.33416 17.9233 4.32176 22.0163C3.58502 23.5103 3.19626 25.932 4.06262 27.7193C4.69703 29.0222 6.81173 31.1847 8.12149 31.3007C8.29886 31.3143 8.46257 31.328 8.62629 31.3416C10.2703 31.4781 11.3618 31.5667 12.924 32.6241C13.9814 33.3404 15.1206 34.4182 16.4099 35.9258L16.7918 36.3692L16.2257 36.5124C14.8272 36.874 13.3742 37.2492 11.9416 37.2492C10.9252 37.2492 9.99067 37.065 9.0902 36.683C7.97145 36.2123 7.2347 35.8985 6.70261 34.7183C6.64804 34.5955 6.62755 34.425 6.59344 34.1044C6.57297 33.927 6.53886 33.6269 6.49793 33.4836C4.12397 32.6309 2.45264 31.1847 1.53171 29.2064C0.678998 27.3714 0.494862 25.1611 0.986024 22.6235C1.36122 20.6861 2.38444 18.9807 3.93979 17.705C9.40397 13.2095 15.7686 12.9162 22.5084 12.6092L23.3885 12.5683C26.2604 12.4387 28.4501 12.0021 31.2061 11.0266C34.269 9.94193 36.8408 9.10287 39.7264 8.94597H39.7878C40.5382 8.90504 41.3364 8.88456 42.1618 8.88456C44.6039 8.88456 47.0802 9.0483 49.4678 9.2052C51.8486 9.3621 54.3112 9.5258 56.7329 9.5258C57.0399 9.5258 57.34 9.5258 57.647 9.5258C60.7918 9.47122 63.9161 8.9596 66.9381 8.46161C68.2274 8.25014 69.5577 8.03187 70.8879 7.84769L71.0448 7.8272C72.8048 7.58844 74.5102 7.15184 76.243 6.83805C76.3044 6.83123 76.3658 6.81076 76.4203 6.79712C76.4203 6.79712 76.4135 6.80395 76.4067 6.81078C76.318 6.87899 76.2293 6.9472 76.1406 7.01542C75.8746 7.24053 75.629 7.47929 75.3902 7.73852C75.1583 7.99774 74.9469 8.27745 74.749 8.56396C74.5512 8.85047 74.3807 9.15063 74.2169 9.46443C74.06 9.77822 73.91 10.092 73.794 10.4194C73.6712 10.7469 73.5688 11.0812 73.487 11.4222C73.446 11.5928 73.412 11.7633 73.3779 11.9407L73.296 12.4455C73.0777 13.7689 72.8048 15.0855 72.2591 16.2793C71.9794 16.8728 71.6315 17.439 71.1267 17.8483C70.8811 18.0529 70.5878 18.2098 70.274 18.319C69.9602 18.4213 69.6259 18.4622 69.2849 18.4486C69.6191 18.5236 69.967 18.5373 70.3149 18.4759C70.6628 18.4145 70.9971 18.2712 71.2972 18.0802C71.5974 17.8892 71.8566 17.6368 72.0817 17.3708C72.3137 17.0979 72.4978 16.8046 72.6684 16.4976C73.0095 15.8836 73.2482 15.2287 73.4392 14.567C73.5348 14.2396 73.6234 13.8985 73.6916 13.5643C73.7667 13.23 73.8281 12.8889 73.8895 12.5546L73.9714 12.0498C73.9986 11.8929 74.0259 11.7292 74.0669 11.5723C74.1419 11.2517 74.2305 10.9379 74.3397 10.6309C74.4488 10.3239 74.5648 10.017 74.7012 9.71683C74.8377 9.41667 74.9946 9.12331 75.1583 8.8368C75.3221 8.55029 75.5062 8.27745 75.704 8.0114C75.895 7.74535 76.1134 7.49296 76.3453 7.2542C76.5158 7.07684 76.6932 6.89947 76.8842 6.74257V6.72892H76.9115C77.082 6.58566 77.2526 6.4492 77.4368 6.31959C77.5527 6.25137 77.6755 6.19 77.7915 6.12861C78.2827 5.86256 78.5214 5.51466 78.8148 5.07125C78.9648 4.84613 79.1286 4.60735 79.3332 4.36177C79.7561 3.86378 80.2473 3.359 80.9363 3.02474C81.1409 2.92924 81.3456 2.84739 81.5707 2.77917C82.4644 2.52677 83.3443 2.30162 84.3471 2.32209C84.504 2.32209 84.6541 2.32209 84.7974 2.32209C85.3772 2.32209 85.923 2.32209 86.571 2.49263C87.1099 2.62906 87.5329 2.5813 88.1196 2.31526C88.4811 2.15154 88.8358 1.97421 89.1905 1.79684C89.3952 1.69452 89.6067 1.59218 89.8113 1.48986C90.9642 0.93048 92.3217 0.364258 93.918 0.657591C94.6957 0.800846 95.4802 0.671232 96.3056 0.527977C96.367 0.514333 96.4216 0.50752 96.4761 0.493876C97.247 0.364264 98.052 0.234637 98.8842 0.350606C99.505 0.432466 100.112 0.555275 100.678 1.09419C100.924 1.33295 101.074 1.63311 101.204 1.90597C101.299 2.09698 101.401 2.31527 101.49 2.36984C101.661 2.47899 101.913 2.53357 102.179 2.58814C102.554 2.67 102.984 2.75867 103.352 3.03836C103.946 3.48859 104.423 4.1776 104.73 5.02349C104.826 5.28272 104.88 5.57606 104.949 5.88303C105.181 7.04272 105.385 7.56799 106.204 7.45202C106.293 7.43837 106.381 7.41108 106.484 7.36333C106.729 7.24054 107.009 7.0086 107.2 6.76302L107.766 6.03309L107.855 6.95405C107.93 7.73854 107.65 8.37978 107.07 8.78908C107.48 9.11653 108.012 9.61447 108.455 10.2421C108.632 10.474 108.769 10.7264 108.905 10.972C108.953 11.0539 108.994 11.1425 109.042 11.2244L109.008 11.2449C109.096 11.47 109.171 11.7019 109.219 11.9475C109.267 12.2204 109.274 12.3637 109.28 12.4523C109.28 12.4728 109.28 12.4864 109.28 12.5069C109.294 12.5615 109.444 12.7934 109.526 12.9366C109.724 13.2641 110.024 13.5847 110.311 13.8985C110.386 13.9804 110.467 14.0691 110.536 14.1441C110.884 14.5329 111.191 14.8877 111.484 15.2424C112.071 15.9314 112.623 16.5863 113.36 17.2753C113.449 17.3571 113.537 17.439 113.619 17.5072C114.076 17.9097 114.472 18.2644 114.349 19.0967M74.9468 34.6229C74.9468 34.6229 74.8854 34.6229 74.8513 34.6229C74.8854 34.6229 74.9127 34.6229 74.9468 34.6229ZM104.546 9.70317C104.171 9.84642 103.775 9.92827 103.373 9.98967C102.568 10.1193 101.722 10.167 100.876 10.4331C100.665 10.5013 100.46 10.59 100.255 10.6923C100.051 10.8015 99.8597 10.9243 99.6823 11.0812C99.3276 11.3813 99.0615 11.777 98.8978 12.1863C98.8091 12.3977 98.7545 12.6228 98.7272 12.848C98.7 13.0731 98.7136 13.3118 98.7682 13.5301C98.8296 13.7484 98.9319 13.9599 99.082 14.1304C99.2321 14.301 99.4094 14.4238 99.6073 14.5056C99.4504 14.3624 99.314 14.2055 99.2253 14.0281C99.1298 13.8508 99.082 13.6666 99.0683 13.4756C99.041 13.0936 99.1502 12.7184 99.3344 12.3841C99.5186 12.043 99.7574 11.7429 100.058 11.5178C100.351 11.2926 100.699 11.1289 101.074 11.0061C101.824 10.7674 102.657 10.6719 103.482 10.4468C103.891 10.3308 104.307 10.1875 104.683 9.95557C105.058 9.73045 105.385 9.4303 105.604 9.06193C105.283 9.34162 104.935 9.55308 104.553 9.68951M35.456 33.5587C35.456 33.5587 38.8123 27.385 45.136 27.1463C45.136 27.1463 38.6076 26.0753 35.456 33.5587ZM46.1729 23.3738C46.0706 21.5183 46.3981 19.9289 45.5795 17.8824C45.443 17.5549 45.1497 17.3367 44.8836 17.1047C46.3094 18.3258 45.3202 21.2796 45.9341 24.9429C46.5481 28.6129 50.9345 30.7208 50.9345 30.7208C50.2523 30.216 49.5974 29.6703 48.9971 29.07C47.4418 27.5215 46.3026 25.6045 46.1729 23.3738ZM66.3652 28.688C66.14 29.0768 66.0104 29.5134 65.9286 29.9431C65.7717 30.8163 65.7921 31.6963 65.9081 32.5559C65.9217 32.665 65.9422 32.7673 65.9559 32.8697C65.9695 32.972 65.9763 33.0675 65.9831 33.1698C66.0036 33.3745 66.0104 33.5791 66.0104 33.7769C66.0104 34.1862 65.9831 34.5956 65.9354 35.0117C65.8467 35.8371 65.6694 36.6762 65.6216 37.5425C65.9149 36.7376 66.2219 35.9463 66.4129 35.0936C66.5084 34.6706 66.5698 34.234 66.5971 33.7974C66.6107 33.5723 66.6039 33.354 66.5971 33.1357C66.5902 33.0266 66.5767 32.9106 66.563 32.8083C66.5494 32.6923 66.5357 32.59 66.522 32.4877C66.4129 31.6691 66.3515 30.8368 66.4129 30.0182C66.447 29.6157 66.5084 29.2064 66.6449 28.8244C66.7813 28.4492 67.0064 28.0945 67.3747 27.8625C67.1633 27.9171 66.9655 28.0263 66.8018 28.1763C66.6312 28.3264 66.4948 28.5038 66.3788 28.7016" fill="black"/>
<path d="M36.2823 27.9083V23.5083L35.7366 25.5275H33.9356L33.4104 23.522V27.9083H31.5276V17.7235H33.3763L34.843 22.3759L36.3164 17.7235H38.1651V27.9083H36.2823Z" fill="white"/>
<path d="M38.2516 17.6429H36.2664L36.2323 17.7521L34.8543 22.1043L33.4764 17.7521L33.4422 17.6429H31.4571V27.9914H33.4968V24.144L33.8515 25.4947L33.8857 25.6175H35.8093L35.8435 25.4947L36.2119 24.1236V27.9914H38.2516V17.6429ZM38.0878 17.8067V27.8277H36.3688V22.9025L35.6798 25.4538H34.0016L33.3262 22.9025V27.8277H31.6072V17.8067H33.3127L34.8475 22.65L36.3824 17.8067H38.0878Z" fill="white"/>
<path d="M42.1075 19.5995H41.0229V23.0444H42.1075V19.5995ZM42.1075 27.9083V24.9272H41.0229V27.9083H39.1469V18.8627C39.1469 18.2351 39.6586 17.7235 40.2862 17.7235H42.8647C43.4923 17.7235 44.004 18.2351 44.004 18.8627V27.9083H42.1075Z" fill="white"/>
<path d="M41.1061 19.6826H42.027V22.9707H41.1061V19.6826ZM42.8661 17.6429H40.2875C39.6122 17.6429 39.0664 18.1887 39.0664 18.864V27.9914H41.1061V25.0104H42.027V27.9914H44.0804V18.864C44.0804 18.1887 43.5347 17.6429 42.8593 17.6429M40.9424 23.1276H42.1907V19.5189H40.9424V23.1276ZM42.8593 17.7998C43.4324 17.7998 43.9167 18.2705 43.9167 18.8572V27.8209H42.1839V24.8398H40.9356V27.8209H39.2165V18.8572C39.2165 18.2705 39.6872 17.7998 40.2739 17.7998H42.8525H42.8593Z" fill="white"/>
<path d="M48.0734 27.9083L48.0462 27.7923L46.7774 23.7403H46.7569V27.9083H44.8741V17.7235H46.7569V21.8302L48.0667 17.7235H49.9835L48.3531 22.7989L49.9835 27.9083H48.0734Z" fill="white"/>
<path d="M50.0872 17.6466H47.9997L47.9657 17.7557L46.8332 21.3098V17.6398H44.7935V27.9883H46.8332V24.2091L47.9657 27.8177L47.9792 27.8655L48.0134 27.9883H50.0872L50.019 27.7768L48.4295 22.797L50.019 17.8444L50.0872 17.6329V17.6466ZM49.8689 17.8103L48.2658 22.8106L49.8689 27.8382H48.1362L48.1225 27.7836L46.8332 23.6702H46.6763V27.8382H44.9573V17.8171H46.6763V21.9579H46.8059L48.1225 17.8171H49.8689V17.8103Z" fill="white"/>
<path d="M50.2993 27.9083V17.7235H55.1563V19.5995H52.1821V21.8643H54.556V23.7403H52.1821V26.0119H55.1563V27.9083H50.2993Z" fill="white"/>
<path d="M55.2395 17.6429H50.2188V27.9914H55.2395V25.9381H52.2584V23.8302H54.6324V21.7905H52.2584V19.6895H55.2395V17.6498V17.6429ZM55.0758 17.8067V19.5257H52.0947V21.9474H54.4687V23.6665H52.0947V26.1018H55.0758V27.8346H50.3756V17.8135H55.0758V17.8067Z" fill="white"/>
<path d="M60.1066 17.7235H58.2307V27.9083H60.1066V17.7235Z" fill="white"/>
<path d="M60.1899 17.6429H58.1502V27.9914H60.1899V17.6429ZM60.0261 27.8277H58.3071V17.8067H60.0261V27.8277Z" fill="white"/>
<path d="M63.943 27.9083L62.8243 24.0199V27.9083H60.9483V17.7235H62.7902L63.909 21.3731V17.7235H65.8053V27.9083H63.943Z" fill="white"/>
<path d="M65.8918 17.6448H63.8384V20.8373L62.8971 17.7539L62.863 17.6379H60.8778V27.9864H62.9175V24.5893L63.8589 27.8705L63.8931 27.9864H65.8918V17.6379V17.6448ZM65.7281 17.8085V27.8296H64.009L62.747 23.45V27.8296H61.0279V17.8085H62.7333L63.9954 21.922V17.8085H65.7281Z" fill="white"/>
<path d="M71.108 17.7235H69.232V27.9083H71.108V17.7235Z" fill="white"/>
<path d="M71.1912 17.6429H69.1515V27.9914H71.1912V17.6429ZM71.0275 27.8277H69.3084V17.8067H71.0275V27.8277Z" fill="white"/>
<path d="M74.9444 27.9083L73.8256 24.0199V27.9083H71.9496V17.7235H73.7916L74.9103 21.3731V17.7235H76.8067V27.9083H74.9444Z" fill="white"/>
<path d="M76.8931 17.6448H74.8399V20.8373L73.8985 17.7539L73.8643 17.6379H71.8792V27.9864H73.9189V24.5893L74.8603 27.8705L74.8944 27.9864H76.8931V17.6379V17.6448ZM76.7294 17.8085V27.8296H75.0104L73.7483 23.45V27.8296H72.0292V17.8085H73.7347L74.9967 21.922V17.8085H76.7294Z" fill="white"/>
<path d="M80.6442 19.5995H79.5596V26.0119H80.6442V19.5995ZM77.6768 27.9083V17.7235H81.3946C82.0222 17.7235 82.5338 18.2351 82.5338 18.8627V26.7691C82.5338 27.3899 82.0086 27.9083 81.3946 27.9083H77.6768Z" fill="white"/>
<path d="M79.6359 19.6826H80.5568V25.9313H79.6359V19.6826ZM81.396 17.6429H77.5963V27.9914H81.396C82.0577 27.9914 82.617 27.4321 82.617 26.7704V18.864C82.617 18.1887 82.0713 17.6429 81.396 17.6429ZM79.479 26.095H80.7274V19.5189H79.479V26.095ZM81.396 17.7998C81.969 17.7998 82.4533 18.2705 82.4533 18.8572V26.7636C82.4533 27.3366 81.969 27.8209 81.396 27.8209H77.76V17.7998H81.396Z" fill="white"/>
<path d="M85.3604 17.7235H83.4844V27.9083H85.3604V17.7235Z" fill="white"/>
<path d="M85.4537 17.6429H83.414V27.9914H85.4537V17.6429ZM85.2899 27.8277H83.5709V17.8067H85.2899V27.8277Z" fill="white"/>
<path d="M89.1795 19.5995H88.0949V23.0444H89.1795V19.5995ZM89.1795 27.9083V24.9272H88.0949V27.9083H86.2121V18.8627C86.2121 18.2351 86.7238 17.7235 87.3514 17.7235H89.93C90.5576 17.7235 91.0692 18.2351 91.0692 18.8627V27.9083H89.1795Z" fill="white"/>
<path d="M88.1781 19.6826H89.099V22.9707H88.1781V19.6826ZM89.9313 17.6429H87.3527C86.6774 17.6429 86.1316 18.1887 86.1316 18.864V27.9914H88.1713V25.0104H89.0922V27.9914H91.1455V18.864C91.1455 18.1887 90.5998 17.6429 89.9245 17.6429M88.0076 23.1276H89.2492V19.5189H88.0076V23.1276ZM89.9245 17.7998C90.4975 17.7998 90.9818 18.2705 90.9818 18.8572V27.8209H89.2492V24.8398H88.0007V27.8209H86.2816V18.8572C86.2816 18.2705 86.7524 17.7998 87.339 17.7998H89.9177H89.9245Z" fill="white"/>
</svg>
