<svg width="44" height="33" viewBox="0 0 44 33" fill="none" xmlns="http://www.w3.org/2000/svg">
<path d="M29.5339 3.01432L29.5331 2.51432L29.3241 2.51463L29.1775 2.66356L29.5339 3.01432ZM43.8515 2.993L40.9604 0.110548L38.078 3.00159L40.969 5.88404L43.8515 2.993ZM40.964 2.4973L37.3918 2.50262L37.3933 3.50261L40.9655 3.4973L40.964 2.4973ZM33.1053 2.509L29.5331 2.51432L29.5346 3.51432L33.1067 3.509L33.1053 2.509ZM29.1775 2.66356L27.3942 4.47522L28.1068 5.17674L29.8902 3.36508L29.1775 2.66356ZM25.2541 6.64922L21.6873 10.2726L22.4 10.9741L25.9668 7.35074L25.2541 6.64922ZM19.5473 12.4466L15.9805 16.0699L16.6932 16.7714L20.2599 13.1481L19.5473 12.4466ZM13.8405 18.2439L10.2737 21.8672L10.9864 22.5687L14.5531 18.9454L13.8405 18.2439ZM8.13368 24.0412L4.56692 27.6646L5.27957 28.3661L8.84633 24.7427L8.13368 24.0412ZM2.42687 29.8386L0.643495 31.6502L1.35614 32.3517L3.13952 30.5401L2.42687 29.8386ZM29.5339 3.01432L29.5331 2.51432L29.3241 2.51463L29.1775 2.66356L29.5339 3.01432ZM43.8515 2.993L40.9604 0.110548L38.078 3.00159L40.969 5.88404L43.8515 2.993ZM40.964 2.4973L37.3918 2.50262L37.3933 3.50261L40.9655 3.4973L40.964 2.4973ZM33.1053 2.509L29.5331 2.51432L29.5346 3.51432L33.1067 3.509L33.1053 2.509ZM29.1775 2.66356L27.3942 4.47522L28.1068 5.17674L29.8902 3.36508L29.1775 2.66356ZM25.2541 6.64922L21.6873 10.2726L22.4 10.9741L25.9668 7.35074L25.2541 6.64922ZM19.5473 12.4466L15.9805 16.0699L16.6932 16.7714L20.2599 13.1481L19.5473 12.4466ZM13.8405 18.2439L10.2737 21.8672L10.9864 22.5687L14.5531 18.9454L13.8405 18.2439ZM8.13368 24.0412L4.56692 27.6646L5.27957 28.3661L8.84633 24.7427L8.13368 24.0412ZM2.42687 29.8386L0.643495 31.6502L1.35614 32.3517L3.13952 30.5401L2.42687 29.8386Z" fill="#DD2323"/>
</svg>
