<svg width="59" height="31" viewBox="0 0 59 31" fill="none" xmlns="http://www.w3.org/2000/svg">
<path d="M19.4193 3.18101L19.4251 2.68105L19.5786 2.68283L19.7047 2.77046L19.4193 3.18101ZM0.978221 2.96687L3.8983 0.113829L6.75133 3.03391L3.83126 5.88694L0.978221 2.96687ZM3.87058 2.50042L6.30098 2.52864L6.28937 3.52857L3.85897 3.50035L3.87058 2.50042ZM9.21745 2.56251L14.0782 2.61896L14.0666 3.61889L9.20584 3.56244L9.21745 2.56251ZM16.9947 2.65282L19.4251 2.68105L19.4135 3.68098L16.9831 3.65276L16.9947 2.65282ZM19.7047 2.77046L22.116 4.44661L21.5452 5.26771L19.1339 3.59157L19.7047 2.77046ZM25.0095 6.45799L29.832 9.81028L29.2612 10.6314L24.4387 7.27909L25.0095 6.45799ZM32.7255 11.8217L37.548 15.174L36.9772 15.9951L32.1547 12.6428L32.7255 11.8217ZM40.4415 17.1853L45.264 20.5376L44.6933 21.3587L39.8708 18.0064L40.4415 17.1853ZM48.1576 22.549L52.9801 25.9013L52.4093 26.7224L47.5868 23.3701L48.1576 22.549ZM55.8736 27.9127L58.2848 29.5888L57.7141 30.4099L55.3028 28.7338L55.8736 27.9127ZM19.4193 3.18101L19.4251 2.68105L19.5786 2.68283L19.7047 2.77046L19.4193 3.18101ZM0.978221 2.96687L3.8983 0.113829L6.75133 3.03391L3.83126 5.88694L0.978221 2.96687ZM3.87058 2.50042L6.30098 2.52864L6.28937 3.52857L3.85897 3.50035L3.87058 2.50042ZM9.21745 2.56251L14.0782 2.61896L14.0666 3.61889L9.20584 3.56244L9.21745 2.56251ZM16.9947 2.65282L19.4251 2.68105L19.4135 3.68098L16.9831 3.65276L16.9947 2.65282ZM19.7047 2.77046L22.116 4.44661L21.5452 5.26771L19.1339 3.59157L19.7047 2.77046ZM25.0095 6.45799L29.832 9.81028L29.2612 10.6314L24.4387 7.27909L25.0095 6.45799ZM32.7255 11.8217L37.548 15.174L36.9772 15.9951L32.1547 12.6428L32.7255 11.8217ZM40.4415 17.1853L45.264 20.5376L44.6933 21.3587L39.8708 18.0064L40.4415 17.1853ZM48.1576 22.549L52.9801 25.9013L52.4093 26.7224L47.5868 23.3701L48.1576 22.549ZM55.8736 27.9127L58.2848 29.5888L57.7141 30.4099L55.3028 28.7338L55.8736 27.9127Z" fill="#DD2323"/>
</svg>
