<svg width="42" height="23" viewBox="0 0 42 23" fill="none" xmlns="http://www.w3.org/2000/svg">
<path d="M14.0491 3.50712L14.0549 3.00715L14.2067 3.00892L14.332 3.09484L14.0491 3.50712ZM0.297187 3.34743L3.21726 0.49439L6.0703 3.41447L3.15022 6.2675L0.297187 3.34743ZM3.18955 2.88098L6.58497 2.92041L6.57336 3.92034L3.17794 3.88091L3.18955 2.88098ZM10.6595 2.96772L14.0549 3.00715L14.0433 4.00709L10.6479 3.96766L10.6595 2.96772ZM14.332 3.09484L16.4376 4.53961L15.8718 5.36417L13.7662 3.9194L14.332 3.09484ZM18.9644 6.27334L23.1757 9.16288L22.6099 9.98744L18.3986 7.0979L18.9644 6.27334ZM25.7024 10.8966L29.9137 13.7861L29.348 14.6107L25.1367 11.7212L25.7024 10.8966ZM32.4405 15.5199L36.6518 18.4094L36.086 19.234L31.8747 16.3444L32.4405 15.5199ZM39.1786 20.1431L41.2842 21.5879L40.7184 22.4125L38.6128 20.9677L39.1786 20.1431ZM14.0491 3.50712L14.0549 3.00715L14.2067 3.00892L14.332 3.09484L14.0491 3.50712ZM0.297187 3.34743L3.21726 0.49439L6.0703 3.41447L3.15022 6.2675L0.297187 3.34743ZM3.18955 2.88098L6.58497 2.92041L6.57336 3.92034L3.17794 3.88091L3.18955 2.88098ZM10.6595 2.96772L14.0549 3.00715L14.0433 4.00709L10.6479 3.96766L10.6595 2.96772ZM14.332 3.09484L16.4376 4.53961L15.8718 5.36417L13.7662 3.9194L14.332 3.09484ZM18.9644 6.27334L23.1757 9.16288L22.6099 9.98744L18.3986 7.0979L18.9644 6.27334ZM25.7024 10.8966L29.9137 13.7861L29.348 14.6107L25.1367 11.7212L25.7024 10.8966ZM32.4405 15.5199L36.6518 18.4094L36.086 19.234L31.8747 16.3444L32.4405 15.5199ZM39.1786 20.1431L41.2842 21.5879L40.7184 22.4125L38.6128 20.9677L39.1786 20.1431Z" fill="#DD2323"/>
</svg>
